<?xml version="1.0" standalone="no"?><!DOCTYPE svg PUBLIC "-//W3C//DTD SVG 1.1//EN" "http://www.w3.org/Graphics/SVG/1.1/DTD/svg11.dtd"><svg t="1637984460877" class="icon" viewBox="0 0 1024 1024" version="1.1" xmlns="http://www.w3.org/2000/svg" p-id="19369" xmlns:xlink="http://www.w3.org/1999/xlink" width="200" height="200"><defs><style type="text/css"></style></defs><path d="M147.904 304.128l301.866667-179.541333a128 128 0 0 1 131.712 0.512l295.466666 178.88A128 128 0 0 1 938.666667 413.482667V810.666667a128 128 0 0 1-128 128H213.333333a128 128 0 0 1-128-128V414.144a128 128 0 0 1 62.570667-110.016z m43.626667 73.344A42.666667 42.666667 0 0 0 170.666667 414.144V810.666667a42.666667 42.666667 0 0 0 42.666666 42.666666h597.333334a42.666667 42.666667 0 0 0 42.666666-42.666666V413.482667a42.666667 42.666667 0 0 0-20.565333-36.501334l-295.466667-178.88a42.666667 42.666667 0 0 0-43.925333-0.170666l-301.866667 179.541333z" fill="#333333" p-id="19370"></path><path d="M405.333333 469.333333h213.333334a42.666667 42.666667 0 1 1 0 85.333334H405.333333a42.666667 42.666667 0 1 1 0-85.333334z m0 85.333334a42.666667 42.666667 0 1 0 0-85.333334h213.333334a42.666667 42.666667 0 1 0 0 85.333334H405.333333z" fill="#333333" p-id="19371"></path></svg>